<mxfile host="app.diagrams.net" modified="2020-08-06T21:34:10.984Z" agent="5.0 (Windows NT 6.1; WOW64) AppleWebKit/537.36 (KHTML, like Gecko) Chrome/84.0.4147.105 Safari/537.36" etag="wcP19rhM1ZIjI3YWgry9" version="13.5.9" type="github">
  <diagram id="FlkiXIvMVXTxF6Fdl1Iv" name="Page-1">
    <mxGraphModel dx="782" dy="482" grid="1" gridSize="10" guides="1" tooltips="1" connect="1" arrows="1" fold="1" page="1" pageScale="1" pageWidth="850" pageHeight="1100" math="0" shadow="0">
      <root>
        <mxCell id="0" />
        <mxCell id="1" parent="0" />
        <mxCell id="LrLYDFanNHeDi5vaeuGO-1" value="" style="shape=internalStorage;whiteSpace=wrap;html=1;backgroundOutline=1;dx=0;dy=20;" parent="1" vertex="1">
          <mxGeometry x="390" y="140" width="100" height="130" as="geometry" />
        </mxCell>
        <mxCell id="LrLYDFanNHeDi5vaeuGO-2" value="Login" style="text;html=1;strokeColor=none;fillColor=none;align=center;verticalAlign=middle;whiteSpace=wrap;rounded=0;" parent="1" vertex="1">
          <mxGeometry x="370" y="140" width="120" height="20" as="geometry" />
        </mxCell>
        <mxCell id="6O0EgB1ZYoLf4B6Ahiwj-1" style="edgeStyle=orthogonalEdgeStyle;rounded=0;orthogonalLoop=1;jettySize=auto;html=1;exitX=0.25;exitY=1;exitDx=0;exitDy=0;entryX=0.856;entryY=-0.05;entryDx=0;entryDy=0;entryPerimeter=0;" edge="1" parent="1" source="LrLYDFanNHeDi5vaeuGO-3" target="LrLYDFanNHeDi5vaeuGO-5">
          <mxGeometry relative="1" as="geometry" />
        </mxCell>
        <mxCell id="LrLYDFanNHeDi5vaeuGO-3" value="IdUsuario&lt;br&gt;Password" style="text;html=1;strokeColor=none;fillColor=none;align=center;verticalAlign=middle;whiteSpace=wrap;rounded=0;" parent="1" vertex="1">
          <mxGeometry x="360" y="130" width="130" height="100" as="geometry" />
        </mxCell>
        <mxCell id="6O0EgB1ZYoLf4B6Ahiwj-3" style="edgeStyle=orthogonalEdgeStyle;rounded=0;orthogonalLoop=1;jettySize=auto;html=1;exitX=1;exitY=0.75;exitDx=0;exitDy=0;entryX=-0.013;entryY=0.216;entryDx=0;entryDy=0;entryPerimeter=0;" edge="1" parent="1" source="LrLYDFanNHeDi5vaeuGO-4" target="LrLYDFanNHeDi5vaeuGO-7">
          <mxGeometry relative="1" as="geometry" />
        </mxCell>
        <mxCell id="LrLYDFanNHeDi5vaeuGO-4" value="" style="shape=internalStorage;whiteSpace=wrap;html=1;backgroundOutline=1;dx=0;dy=20;" parent="1" vertex="1">
          <mxGeometry x="70" y="260" width="150" height="100" as="geometry" />
        </mxCell>
        <mxCell id="LrLYDFanNHeDi5vaeuGO-5" value="Listado de artículos" style="text;html=1;strokeColor=none;fillColor=none;align=center;verticalAlign=middle;whiteSpace=wrap;rounded=0;" parent="1" vertex="1">
          <mxGeometry x="40" y="260" width="180" height="20" as="geometry" />
        </mxCell>
        <mxCell id="LrLYDFanNHeDi5vaeuGO-6" value="IdListado&lt;br&gt;Precio&lt;br&gt;Relevancia" style="text;html=1;strokeColor=none;fillColor=none;align=center;verticalAlign=middle;whiteSpace=wrap;rounded=0;" parent="1" vertex="1">
          <mxGeometry x="60" y="280" width="150" height="50" as="geometry" />
        </mxCell>
        <mxCell id="LrLYDFanNHeDi5vaeuGO-7" value="" style="shape=internalStorage;whiteSpace=wrap;html=1;backgroundOutline=1;dx=0;dy=20;" parent="1" vertex="1">
          <mxGeometry x="345" y="310" width="155" height="190" as="geometry" />
        </mxCell>
        <mxCell id="LrLYDFanNHeDi5vaeuGO-8" value="Artículo" style="text;html=1;strokeColor=none;fillColor=none;align=center;verticalAlign=middle;whiteSpace=wrap;rounded=0;" parent="1" vertex="1">
          <mxGeometry x="345" y="310" width="155" height="20" as="geometry" />
        </mxCell>
        <mxCell id="6O0EgB1ZYoLf4B6Ahiwj-7" style="edgeStyle=orthogonalEdgeStyle;rounded=0;orthogonalLoop=1;jettySize=auto;html=1;exitX=0;exitY=0.75;exitDx=0;exitDy=0;entryX=1.006;entryY=0.34;entryDx=0;entryDy=0;entryPerimeter=0;" edge="1" parent="1" source="LrLYDFanNHeDi5vaeuGO-9" target="LrLYDFanNHeDi5vaeuGO-13">
          <mxGeometry relative="1" as="geometry" />
        </mxCell>
        <mxCell id="LrLYDFanNHeDi5vaeuGO-9" value="IdArticulo&lt;br&gt;Nombre&lt;br&gt;Descripción&lt;br&gt;Categoría&lt;br&gt;Precio&lt;br&gt;Moneda&lt;br&gt;Número de compradores&lt;br&gt;Imágenes&lt;br&gt;Productos relacionados&lt;br&gt;Calificación&lt;br&gt;Comentarios" style="text;html=1;strokeColor=none;fillColor=none;align=center;verticalAlign=middle;whiteSpace=wrap;rounded=0;" parent="1" vertex="1">
          <mxGeometry x="340" y="260" width="155" height="290" as="geometry" />
        </mxCell>
        <mxCell id="LrLYDFanNHeDi5vaeuGO-11" value="" style="shape=internalStorage;whiteSpace=wrap;html=1;backgroundOutline=1;dx=0;dy=20;" parent="1" vertex="1">
          <mxGeometry x="65" y="410" width="165" height="180" as="geometry" />
        </mxCell>
        <mxCell id="LrLYDFanNHeDi5vaeuGO-12" value="Carrito de compras" style="text;html=1;strokeColor=none;fillColor=none;align=center;verticalAlign=middle;whiteSpace=wrap;rounded=0;" parent="1" vertex="1">
          <mxGeometry x="60" y="410" width="170" height="20" as="geometry" />
        </mxCell>
        <mxCell id="6O0EgB1ZYoLf4B6Ahiwj-8" style="edgeStyle=orthogonalEdgeStyle;rounded=0;orthogonalLoop=1;jettySize=auto;html=1;exitX=1;exitY=1;exitDx=0;exitDy=0;entryX=0.25;entryY=0;entryDx=0;entryDy=0;" edge="1" parent="1" source="LrLYDFanNHeDi5vaeuGO-13" target="6O0EgB1ZYoLf4B6Ahiwj-5">
          <mxGeometry relative="1" as="geometry" />
        </mxCell>
        <mxCell id="LrLYDFanNHeDi5vaeuGO-13" value="IdCarrito&lt;br&gt;IdArtículo&lt;br&gt;IdFormadePago&lt;br&gt;IdEnvio&lt;br&gt;IdPrecioArticulo&lt;br&gt;Cantidad&lt;br&gt;Costo total&lt;br&gt;Subtotal&lt;br&gt;Total" style="text;html=1;strokeColor=none;fillColor=none;align=center;verticalAlign=middle;whiteSpace=wrap;rounded=0;" parent="1" vertex="1">
          <mxGeometry x="65" y="450" width="165" height="100" as="geometry" />
        </mxCell>
        <mxCell id="LrLYDFanNHeDi5vaeuGO-14" value="" style="shape=internalStorage;whiteSpace=wrap;html=1;backgroundOutline=1;dx=0;dy=20;" parent="1" vertex="1">
          <mxGeometry x="580" y="530" width="152" height="130" as="geometry" />
        </mxCell>
        <mxCell id="LrLYDFanNHeDi5vaeuGO-15" value="Metodo de envío" style="text;html=1;strokeColor=none;fillColor=none;align=center;verticalAlign=middle;whiteSpace=wrap;rounded=0;" parent="1" vertex="1">
          <mxGeometry x="582" y="530" width="150" height="20" as="geometry" />
        </mxCell>
        <mxCell id="LrLYDFanNHeDi5vaeuGO-16" value="IdEnvio&lt;br&gt;Calle&lt;br&gt;Número&lt;br&gt;Pais&lt;br&gt;Localidad&lt;br&gt;Metodo de envío" style="text;html=1;strokeColor=none;fillColor=none;align=center;verticalAlign=middle;whiteSpace=wrap;rounded=0;" parent="1" vertex="1">
          <mxGeometry x="582.5" y="530" width="150" height="140" as="geometry" />
        </mxCell>
        <mxCell id="6O0EgB1ZYoLf4B6Ahiwj-4" value="" style="shape=internalStorage;whiteSpace=wrap;html=1;backgroundOutline=1;dx=0;dy=25;" vertex="1" parent="1">
          <mxGeometry x="340" y="590" width="140" height="60" as="geometry" />
        </mxCell>
        <mxCell id="6O0EgB1ZYoLf4B6Ahiwj-5" value="Forma de pago" style="text;html=1;strokeColor=none;fillColor=none;align=center;verticalAlign=middle;whiteSpace=wrap;rounded=0;" vertex="1" parent="1">
          <mxGeometry x="340" y="590" width="140" height="20" as="geometry" />
        </mxCell>
        <mxCell id="6O0EgB1ZYoLf4B6Ahiwj-9" style="edgeStyle=orthogonalEdgeStyle;rounded=0;orthogonalLoop=1;jettySize=auto;html=1;exitX=1;exitY=0;exitDx=0;exitDy=0;entryX=-0.013;entryY=0.662;entryDx=0;entryDy=0;entryPerimeter=0;" edge="1" parent="1" source="6O0EgB1ZYoLf4B6Ahiwj-6" target="LrLYDFanNHeDi5vaeuGO-14">
          <mxGeometry relative="1" as="geometry" />
        </mxCell>
        <mxCell id="6O0EgB1ZYoLf4B6Ahiwj-6" value="IdFormadePago&lt;br&gt;Tipo de tarjeta" style="text;html=1;strokeColor=none;fillColor=none;align=center;verticalAlign=middle;whiteSpace=wrap;rounded=0;" vertex="1" parent="1">
          <mxGeometry x="340" y="620" width="140" height="20" as="geometry" />
        </mxCell>
      </root>
    </mxGraphModel>
  </diagram>
</mxfile>
